<?xml version="1.0" standalone="no"?>
<!DOCTYPE svg PUBLIC "-//W3C//DTD SVG 20010904//EN"
 "http://www.w3.org/TR/2001/REC-SVG-20010904/DTD/svg10.dtd">
<svg version="1.0" xmlns="http://www.w3.org/2000/svg"
 width="300.000000pt" height="293.000000pt" viewBox="0 0 300.000000 293.000000"
 preserveAspectRatio="xMidYMid meet">

<g transform="translate(0.000000,293.000000) scale(0.100000,-0.100000)"
fill="#000000" stroke="none">
<path d="M1200 2905 l0 -25 -100 0 -100 0 0 -25 c0 -24 -2 -25 -75 -25 -73 0
-75 -1 -75 -25 0 -23 -3 -25 -50 -25 -47 0 -50 -2 -50 -25 0 -20 -5 -25 -25
-25 -20 0 -25 -5 -25 -25 0 -20 -5 -25 -25 -25 -20 0 -25 -5 -25 -25 0 -23 -3
-25 -50 -25 -47 0 -50 -2 -50 -25 0 -20 -5 -25 -25 -25 -20 0 -25 -5 -25 -25
0 -20 -5 -25 -25 -25 -20 0 -25 -5 -25 -25 0 -20 -5 -25 -25 -25 -23 0 -25 -3
-25 -50 0 -47 -2 -50 -25 -50 -20 0 -25 -5 -25 -25 0 -20 -5 -25 -25 -25 -20
0 -25 -5 -25 -25 0 -20 -5 -25 -25 -25 -20 0 -25 -5 -25 -25 0 -20 5 -25 25
-25 18 0 25 -5 25 -20 0 -20 7 -20 1125 -20 l1125 0 0 45 c0 41 -2 45 -25 45
-23 0 -25 3 -25 50 0 47 -2 50 -25 50 -20 0 -25 5 -25 25 0 20 -5 25 -25 25
-20 0 -25 5 -25 25 0 20 -5 25 -25 25 -20 0 -25 5 -25 25 0 20 -5 25 -25 25
-20 0 -25 5 -25 25 0 20 -5 25 -25 25 -20 0 -25 5 -25 25 0 20 -5 25 -25 25
-20 0 -25 5 -25 25 0 23 -3 25 -50 25 -47 0 -50 2 -50 25 0 20 -5 25 -25 25
-20 0 -25 5 -25 25 0 23 -3 25 -50 25 -47 0 -50 2 -50 25 0 24 -2 25 -75 25
-73 0 -75 1 -75 25 l0 25 -100 0 -100 0 0 25 0 25 -200 0 -200 0 0 -25z m0
-150 c0 -20 -5 -25 -25 -25 -20 0 -25 -5 -25 -25 0 -20 -5 -25 -25 -25 -20 0
-25 -5 -25 -25 0 -20 -5 -25 -25 -25 -20 0 -25 -5 -25 -25 0 -20 -5 -25 -25
-25 -20 0 -25 -5 -25 -25 0 -20 -5 -25 -25 -25 -20 0 -25 -5 -25 -25 0 -20 -5
-25 -25 -25 -23 0 -25 -3 -25 -50 0 -47 -2 -50 -25 -50 -20 0 -25 -5 -25 -25
l0 -25 -175 0 -175 0 0 25 c0 20 5 25 25 25 20 0 25 5 25 25 0 20 5 25 25 25
20 0 25 5 25 25 0 20 5 25 25 25 20 0 25 5 25 25 0 20 5 25 25 25 20 0 25 5
25 25 0 20 5 25 25 25 20 0 25 5 25 25 0 23 3 25 50 25 47 0 50 2 50 25 0 23
3 25 50 25 47 0 50 2 50 25 0 24 2 25 75 25 73 0 75 1 75 25 0 23 3 25 50 25
47 0 50 -2 50 -25z m500 0 c0 -24 2 -25 75 -25 73 0 75 -1 75 -25 0 -23 3 -25
50 -25 47 0 50 -2 50 -25 0 -23 3 -25 50 -25 47 0 50 -2 50 -25 0 -20 5 -25
25 -25 20 0 25 -5 25 -25 0 -20 5 -25 25 -25 20 0 25 -5 25 -25 0 -23 3 -25
50 -25 47 0 50 -2 50 -25 0 -20 5 -25 25 -25 23 0 25 -3 25 -50 l0 -50 -175 0
-175 0 0 50 c0 47 -2 50 -25 50 -20 0 -25 5 -25 25 0 20 -5 25 -25 25 -20 0
-25 5 -25 25 0 20 -5 25 -25 25 -20 0 -25 5 -25 25 0 20 -5 25 -25 25 -20 0
-25 5 -25 25 0 20 -5 25 -25 25 -20 0 -25 5 -25 25 0 20 -5 25 -25 25 -20 0
-25 5 -25 25 0 20 -5 25 -25 25 -20 0 -25 5 -25 25 0 23 3 25 50 25 47 0 50
-2 50 -25z m-350 -250 l0 -175 -175 0 -175 0 0 25 c0 20 5 25 25 25 20 0 25 5
25 25 0 20 5 25 25 25 20 0 25 5 25 25 0 20 5 25 25 25 20 0 25 5 25 25 0 20
5 25 25 25 20 0 25 5 25 25 0 20 5 25 25 25 20 0 25 5 25 25 0 20 5 25 25 25
20 0 25 5 25 25 0 20 5 25 25 25 l25 0 0 -175z m150 150 c0 -20 5 -25 25 -25
20 0 25 -5 25 -25 0 -23 3 -25 50 -25 47 0 50 -2 50 -25 0 -20 5 -25 25 -25
23 0 25 -3 25 -50 0 -47 2 -50 25 -50 20 0 25 -5 25 -25 0 -20 5 -25 25 -25
20 0 25 -5 25 -25 l0 -25 -175 0 -175 0 0 175 0 175 25 0 c20 0 25 -5 25 -25z"/>
<path d="M0 1890 c0 -47 2 -50 25 -50 l25 0 0 -100 0 -100 25 0 25 0 0 -100 0
-100 25 0 c23 0 25 -3 25 -50 l0 -50 125 0 125 0 0 100 0 100 25 0 c20 0 25 5
25 25 0 20 5 25 25 25 24 0 25 -2 25 -75 0 -73 1 -75 25 -75 23 0 25 -3 25
-50 l0 -50 125 0 125 0 0 100 0 100 25 0 25 0 0 100 0 100 25 0 25 0 0 100 0
100 -100 0 -100 0 0 -100 0 -100 -25 0 c-23 0 -25 -3 -25 -50 0 -47 -2 -50
-25 -50 l-25 0 0 125 0 125 -25 0 c-20 0 -25 5 -25 25 l0 25 -100 0 -100 0 0
-100 0 -100 -25 0 c-23 0 -25 -3 -25 -50 0 -47 -2 -50 -25 -50 l-25 0 0 100 0
100 -25 0 c-23 0 -25 3 -25 50 l0 50 -100 0 -100 0 0 -50z"/>
<path d="M950 1865 c0 -73 1 -75 25 -75 l25 0 0 -100 0 -100 25 0 25 0 0 -100
0 -100 25 0 c20 0 25 -5 25 -25 l0 -25 125 0 125 0 0 100 0 100 25 0 c20 0 25
5 25 25 0 20 5 25 25 25 l25 0 0 -100 0 -100 25 0 c20 0 25 -5 25 -25 l0 -25
125 0 125 0 0 100 0 100 25 0 25 0 0 100 0 100 25 0 25 0 0 100 0 100 -100 0
-100 0 0 -100 0 -100 -25 0 c-23 0 -25 -3 -25 -50 0 -47 -2 -50 -25 -50 l-25
0 0 100 0 100 -25 0 c-23 0 -25 3 -25 50 l0 50 -100 0 -100 0 0 -75 c0 -73 -1
-75 -25 -75 -24 0 -25 -2 -25 -75 0 -73 -1 -75 -25 -75 l-25 0 0 100 0 100
-25 0 c-23 0 -25 3 -25 50 l0 50 -100 0 -100 0 0 -75z"/>
<path d="M1900 1865 c0 -73 1 -75 25 -75 l25 0 0 -100 0 -100 25 0 25 0 0
-100 0 -100 25 0 c20 0 25 -5 25 -25 l0 -25 100 0 100 0 0 25 c0 20 5 25 25
25 24 0 25 2 25 75 0 73 1 75 25 75 20 0 25 5 25 25 0 20 5 25 25 25 l25 0 0
-100 0 -100 25 0 c20 0 25 -5 25 -25 l0 -25 125 0 125 0 0 100 0 100 25 0 25
0 0 100 0 100 25 0 25 0 0 100 0 100 -100 0 -100 0 0 -75 c0 -73 -1 -75 -25
-75 -24 0 -25 -2 -25 -75 0 -73 -1 -75 -25 -75 l-25 0 0 100 0 100 -25 0 c-23
0 -25 3 -25 50 l0 50 -100 0 -100 0 0 -75 c0 -73 -1 -75 -25 -75 -24 0 -25 -2
-25 -75 0 -73 -1 -75 -25 -75 -24 0 -25 2 -25 75 0 73 -1 75 -25 75 -24 0 -25
2 -25 75 l0 75 -100 0 -100 0 0 -75z"/>
<path d="M1800 1065 c0 -73 1 -75 25 -75 23 0 25 -3 25 -50 0 -47 2 -50 25
-50 23 0 25 -3 25 -50 0 -47 2 -50 25 -50 23 0 25 -4 25 -45 0 -41 2 -45 25
-45 24 0 25 -2 25 -75 0 -73 1 -75 25 -75 23 0 25 -3 25 -50 0 -47 2 -50 25
-50 23 0 25 -3 25 -50 0 -47 2 -50 25 -50 23 0 25 -3 25 -50 0 -47 2 -50 25
-50 23 0 25 -3 25 -50 0 -47 2 -50 25 -50 23 0 25 -3 25 -50 0 -47 2 -50 25
-50 20 0 25 -5 25 -25 0 -23 3 -25 50 -25 47 0 50 2 50 25 0 20 5 25 25 25 23
0 25 3 25 50 0 47 2 50 25 50 24 0 25 2 25 75 0 73 1 75 25 75 20 0 25 -5 25
-25 0 -20 5 -25 25 -25 20 0 25 -5 25 -25 0 -20 5 -25 25 -25 20 0 25 -5 25
-25 0 -23 3 -25 50 -25 47 0 50 -2 50 -25 0 -23 3 -25 50 -25 47 0 50 2 50 25
0 20 5 25 25 25 20 0 25 5 25 25 0 20 5 25 25 25 20 0 25 5 25 25 0 20 5 25
25 25 23 0 25 3 25 50 0 47 -2 50 -25 50 -20 0 -25 5 -25 25 0 20 -5 25 -25
25 -20 0 -25 5 -25 25 0 20 -5 25 -25 25 -20 0 -25 5 -25 25 0 20 -5 25 -25
25 -20 0 -25 5 -25 25 0 20 -5 25 -25 25 -20 0 -25 5 -25 25 0 23 3 25 50 25
47 0 50 2 50 25 0 23 3 25 50 25 47 0 50 2 50 25 0 20 5 25 25 25 24 0 25 2
25 70 l0 70 -50 0 c-47 0 -50 2 -50 25 0 24 -2 25 -75 25 -73 0 -75 1 -75 25
l0 25 -100 0 -100 0 0 25 c0 24 -2 25 -75 25 -73 0 -75 1 -75 25 l0 25 -100 0
-100 0 0 25 0 25 -100 0 -100 0 0 25 0 25 -100 0 -100 0 0 -75z m350 -100 l0
-25 100 0 100 0 0 -25 0 -25 100 0 100 0 0 -25 0 -25 100 0 100 0 0 -25 c0
-24 2 -25 75 -25 68 0 75 -2 75 -20 0 -15 -7 -20 -25 -20 -20 0 -25 -5 -25
-25 0 -20 -5 -25 -25 -25 -20 0 -25 -5 -25 -25 0 -23 -3 -25 -50 -25 -47 0
-50 -2 -50 -25 0 -20 -5 -25 -25 -25 -23 0 -25 -3 -25 -50 0 -47 2 -50 25 -50
20 0 25 -5 25 -25 0 -20 5 -25 25 -25 20 0 25 -5 25 -25 0 -20 5 -25 25 -25
20 0 25 -5 25 -25 0 -20 5 -25 25 -25 23 0 25 -3 25 -50 0 -47 -2 -50 -25 -50
-20 0 -25 -5 -25 -25 0 -20 -5 -25 -25 -25 -20 0 -25 5 -25 25 0 20 -5 25 -25
25 -20 0 -25 5 -25 25 0 20 -5 25 -25 25 -20 0 -25 5 -25 25 0 23 -3 25 -50
25 -47 0 -50 2 -50 25 0 23 -3 25 -50 25 l-50 0 0 -50 c0 -47 -2 -50 -25 -50
-24 0 -25 -2 -25 -75 0 -73 -1 -75 -25 -75 -20 0 -25 -5 -25 -25 0 -20 -5 -25
-25 -25 -24 0 -25 2 -25 75 0 73 -1 75 -25 75 -23 0 -25 3 -25 50 0 47 -2 50
-25 50 -23 0 -25 3 -25 50 0 47 -2 50 -25 50 -23 0 -25 3 -25 50 0 47 -2 50
-25 50 -24 0 -25 2 -25 75 0 73 -1 75 -25 75 -23 0 -25 4 -25 45 0 41 -2 45
-25 45 -23 0 -25 3 -25 50 0 47 -2 50 -25 50 -23 0 -25 3 -25 50 l0 50 100 0
100 0 0 -25z"/>
<path d="M250 1015 c0 -20 5 -25 25 -25 20 0 25 -5 25 -25 0 -20 5 -25 25 -25
23 0 25 -3 25 -50 0 -47 2 -50 25 -50 20 0 25 -5 25 -25 0 -20 5 -25 25 -25
18 0 25 -5 25 -20 0 -15 7 -20 25 -20 20 0 25 -5 25 -25 0 -20 5 -25 25 -25
20 0 25 -5 25 -25 0 -20 5 -25 25 -25 20 0 25 -5 25 -25 0 -23 3 -25 50 -25
47 0 50 -2 50 -25 0 -20 5 -25 25 -25 20 0 25 -5 25 -25 0 -23 3 -25 50 -25
47 0 50 -2 50 -25 0 -23 3 -25 50 -25 47 0 50 -2 50 -25 l0 -25 100 0 100 0 0
-25 0 -25 250 0 250 0 0 25 c0 24 2 25 75 25 l75 0 0 50 c0 47 -2 50 -25 50
-20 0 -25 5 -25 25 0 20 -5 25 -25 25 -24 0 -25 2 -25 75 l0 75 -50 0 c-47 0
-50 -2 -50 -25 0 -20 -5 -25 -25 -25 -20 0 -25 -5 -25 -25 0 -23 -3 -25 -50
-25 l-50 0 0 145 0 145 25 0 c20 0 25 5 25 25 0 20 5 25 25 25 23 0 25 3 25
50 l0 50 -650 0 -650 0 0 -25z m550 -100 c0 -20 5 -25 25 -25 20 0 25 -5 25
-25 0 -20 5 -25 25 -25 20 0 25 -5 25 -25 0 -20 5 -25 25 -25 18 0 25 -5 25
-20 0 -15 7 -20 25 -20 20 0 25 -5 25 -25 0 -20 5 -25 25 -25 20 0 25 -5 25
-25 0 -20 5 -25 25 -25 20 0 25 -5 25 -25 0 -20 5 -25 25 -25 20 0 25 -5 25
-25 0 -20 5 -25 25 -25 20 0 25 -5 25 -25 0 -23 -3 -25 -50 -25 -47 0 -50 2
-50 25 0 24 -2 25 -75 25 -73 0 -75 1 -75 25 0 23 -3 25 -50 25 -47 0 -50 2
-50 25 0 23 -3 25 -50 25 -47 0 -50 2 -50 25 0 20 -5 25 -25 25 -20 0 -25 5
-25 25 0 20 -5 25 -25 25 -18 0 -25 5 -25 20 0 15 -7 20 -25 20 -20 0 -25 5
-25 25 0 20 -5 25 -25 25 -20 0 -25 5 -25 25 0 20 -5 25 -25 25 -20 0 -25 5
-25 25 l0 25 150 0 150 0 0 -25z m550 -145 l0 -170 -50 0 c-47 0 -50 2 -50 25
0 20 -5 25 -25 25 -20 0 -25 5 -25 25 0 20 -5 25 -25 25 -20 0 -25 5 -25 25 0
20 -5 25 -25 25 -18 0 -25 5 -25 20 0 15 -7 20 -25 20 -23 0 -25 3 -25 50 0
47 -2 50 -25 50 -20 0 -25 5 -25 25 l0 25 175 0 175 0 0 -170z m350 -245 c0
-20 -5 -25 -25 -25 -20 0 -25 5 -25 25 0 20 5 25 25 25 20 0 25 -5 25 -25z"/>
</g>
</svg>
